<?xml version="1.0" encoding="utf-8"?>
<!-- Generator: Adobe Illustrator 16.0.0, SVG Export Plug-In . SVG Version: 6.00 Build 0)  -->
<!DOCTYPE svg PUBLIC "-//W3C//DTD SVG 1.1//EN" "http://www.w3.org/Graphics/SVG/1.1/DTD/svg11.dtd">
<svg version="1.1" id="Layer_1" xmlns="http://www.w3.org/2000/svg" xmlns:xlink="http://www.w3.org/1999/xlink" x="0px" y="0px"
	 width="288.596px" height="288.596px" viewBox="0 80.617 288.596 288.596" enable-background="new 0 80.617 288.596 288.596"
	 xml:space="preserve">
<rect y="80.617" fill="#FF8500" width="288.596" height="288.596"/>
<g>
	<path fill="#FFFFFF" d="M100.229,198.071c1.021,7.358-0.319,15.097-4.334,22.019c-0.422,0.733-0.872,1.441-1.337,2.13l-3.146-3.163
		c0.243-0.378,0.479-0.766,0.708-1.161c3.383-5.833,4.593-12.326,3.871-18.548L100.229,198.071z M83.375,172.965
		c5.911,3.43,10.425,8.347,13.337,14.002l-4.264,1.289c-2.55-4.636-6.353-8.663-11.264-11.509
		c-14.383-8.347-32.807-3.454-41.153,10.929c-8.347,14.383-3.452,32.806,10.932,41.153c10.466,6.072,23.07,5.135,32.376-1.365
		l3.122,3.136c-10.708,7.84-25.473,9.093-37.688,2.005c-16.47-9.556-22.076-30.654-12.517-47.121
		C45.812,169.013,66.907,163.41,83.375,172.965z M265.017,195.842l-14.909-9.793l-9.052-5.93c-0.147,0.19-0.311,0.371-0.482,0.544
		c-0.188,0.188-0.387,0.36-0.594,0.518l15.724,23.975c1.594,2.436-2.058,4.828-3.653,2.395l-16.568-25.263
		c-1.151-0.193-2.255-0.735-3.143-1.624c-0.199-0.199-0.379-0.406-0.543-0.624c-2.06,0.605-4.358,0.378-6.341-0.814
		c-3.77-2.264-4.99-7.154-2.724-10.921l8.73,5.244c0.24-0.397,0.531-0.773,0.878-1.119c0.332-0.333,0.694-0.616,1.081-0.85
		l-5.241-8.72c3.768-2.264,8.66-1.046,10.924,2.724c1.182,1.97,1.416,4.247,0.828,6.295c0.224,0.166,0.438,0.349,0.64,0.553
		c0.91,0.91,1.455,2.045,1.638,3.228l10.291,6.742l14.909,9.796C269.849,193.789,267.449,197.441,265.017,195.842z"/>
	<path fill="#FFFFFF" d="M62.789,199.566c1.501-1.985,4.326-2.378,6.312-0.874c0.125,0.095,0.248,0.196,0.363,0.302l50.15-15.135
		l1.864-6.015l-5.459-9.921c-0.506-0.918-0.286-2.067,0.521-2.738c0.806-0.667,1.98-0.667,2.784,0.003l20.174,16.723
		c0.833,0.689,1.035,1.888,0.474,2.814c-0.406,0.667-1.128,1.048-1.872,1.048c-0.28,0-0.567-0.054-0.842-0.168l-12.046-5.059
		l-1.302,4.204l33.877,31.54l2.146-6.536l3.016-8.741l-5.704-4.318l-2.19,3.697c-1.229,2.076-3.906,2.762-5.982,1.531
		c-2.076-1.231-2.762-3.906-1.534-5.984l15.996-27.018c0.654-1.101,1.766-1.866,3.029-2.081c1.262-0.213,2.566,0.142,3.542,0.964
		l53.839,45.348l14.977-19.003l0.313,0.474l4.734,7.227L228.013,222.1c-0.735,0.929-1.812,1.522-2.991,1.642
		c-0.147,0.017-0.294,0.022-0.441,0.022c-1.024,0-2.024-0.362-2.814-1.027l-18.537-15.612c-0.292,0.199-1.014,0.703-2.016,1.509
		c-9.431,7.573-13.277,15.799-15.89,27.47l26.767,19.695c1.487,1.098,2.373,2.841,2.373,4.694v40.896
		c0.003,3.217-2.607,5.824-5.821,5.824c-3.217,0-5.821-2.607-5.821-5.824l-0.003-37.955l-29.916-22.019l-1.171,4.819
		c8.227,6.769,12.552,16.649,12.547,26.63c0.002,7.241-2.28,14.563-6.984,20.785c-6.778,8.945-17.091,13.667-27.516,13.667
		c-7.249,0-14.566-2.28-20.782-6.993c-5.132-3.885-8.875-8.935-11.134-14.503c-2.405-0.188-4.536-1.874-5.178-4.34
		c-0.676-2.587,0.506-5.222,2.713-6.505c-0.046-0.719-0.065-1.444-0.065-2.166c0-7.244,2.275-14.566,6.987-20.782
		c6.775-8.954,17.091-13.678,27.513-13.672l0.75,0.008l3.119-9.591l-39.66,11.141l0.017,0.534c0,2.035-0.646,4.097-1.967,5.846
		c-1.898,2.506-4.797,3.838-7.714,3.838c-2.038,0.003-4.122-0.646-5.862-1.964c-2.514-1.901-3.852-4.811-3.844-7.731
		c-0.005-1.795,0.496-3.621,1.528-5.222l-28.488-28.625c-1.337,0.411-2.847,0.196-4.045-0.714
		C61.677,204.374,61.288,201.549,62.789,199.566z M159.48,192.914l7.366,5.573c0.751,0.569,1.048,1.561,0.744,2.455
		c0,0-7.936,23.835-12.52,37.821c2.076,0.319,4.138,0.831,6.153,1.539c1.455-5.936,2.621-10.662,2.665-10.766
		c3.351-13.89,11.305-27.11,22.994-36.182l-18.458-15.549L159.48,192.914z M153.694,242.977l-1.169,3.62
		c-1.31,4.103-1.757,8.325-1.757,12.106c-0.002,2.498,0.191,4.797,0.447,6.745l4.129-1.076l4.838-19.807
		C158.066,243.789,155.887,243.26,153.694,242.977z M146.955,266.557c-0.311-2.218-0.556-4.896-0.556-7.854
		c0-4.122,0.477-8.78,1.967-13.433l0.809-2.534c-8.892,0.196-17.589,4.293-23.375,11.932c-4.122,5.443-6.103,11.809-6.103,18.145
		l0.008,0.825L146.955,266.557z M122.261,285.013c1.997,4.533,5.144,8.632,9.376,11.836c5.44,4.116,11.809,6.104,18.145,6.104
		c9.12-0.002,18.107-4.11,24.032-11.931c4.119-5.451,6.102-11.82,6.104-18.151c-0.005-8.055-3.207-16.006-9.349-21.836
		l-4.731,19.475c-0.507,2.081-2.128,3.726-4.195,4.26L122.261,285.013z M122.351,189.781l-13.1,42.297
		c0.33,0.194,0.651,0.406,0.962,0.643c1.106,0.836,1.986,1.866,2.618,3.007c14.737-4.132,42.351-11.869,42.477-11.875l0.85-2.602
		L122.351,189.781z M118.055,188.891l-47.25,14.263l-0.068,0.292l28.584,28.725c1.534-0.931,3.288-1.416,5.048-1.416
		c0.237,0,0.474,0.008,0.714,0.024L118.055,188.891z M199.353,178.471c1.114-6.502,6.227-11.024,11.422-10.104
		c5.195,0.921,8.505,6.938,7.394,13.443c-1.112,6.505-6.225,11.027-11.422,10.104C201.551,190.991,198.241,184.973,199.353,178.471z
		"/>
</g>
</svg>
