<?xml version="1.0" encoding="utf-8"?>
<!-- Generator: Adobe Illustrator 16.0.0, SVG Export Plug-In . SVG Version: 6.00 Build 0)  -->
<!DOCTYPE svg PUBLIC "-//W3C//DTD SVG 1.1//EN" "http://www.w3.org/Graphics/SVG/1.1/DTD/svg11.dtd">
<svg version="1.1" id="Layer_1" xmlns="http://www.w3.org/2000/svg" xmlns:xlink="http://www.w3.org/1999/xlink" x="0px" y="0px"
	 width="33.815px" height="44.199px" viewBox="0 1.207 33.815 44.199" enable-background="new 0 1.207 33.815 44.199"
	 xml:space="preserve">
<title>42</title>
<path fill="#FF000D" d="M16.585,44.433c0.133,0.111,0.328,0.111,0.461,0c2.017-1.664,16.585-14.115,16.585-26.415
	C33.63,8.732,26.099,1.205,16.812,1.207C7.528,1.209,0.002,8.735,0,18.018C0,30.318,14.568,42.771,16.585,44.433z"/>
<g>
	<path fill="#FFFFFF" d="M130.414,76.361h-1.006c-0.689-4.707-5.394-8.36-11.084-8.36c-5.692,0-10.396,3.656-11.082,8.36h-1.156
		c-1.154,0-2.086,0.797-2.086,1.78c0,0.985,0.932,1.781,2.086,1.781h24.328c1.154,0,2.086-0.796,2.086-1.781
		C132.5,77.158,131.568,76.361,130.414,76.361z"/>
	<path fill="#FFFFFF" d="M131.98,82.204c-0.304-0.437-0.791-0.695-1.316-0.695H106.57c-0.525,0-1.019,0.261-1.316,0.695
		c-0.301,0.436-0.371,0.999-0.195,1.5c1.178,3.289,3.843,5.882,7.124,6.928c1.516,0.487,3.161,0.085,4.296-1.041l2.14-2.12
		l2.139,2.12c0.819,0.81,1.896,1.244,3.004,1.244c0.433,0,0.865-0.067,1.293-0.203c3.281-1.046,5.946-3.639,7.123-6.928
		C132.352,83.203,132.277,82.645,131.98,82.204z M112.359,87.443c-1.656-0.299-2.894-1.153-2.758-1.916
		c0.131-0.763,1.581-1.137,3.235-0.839c1.655,0.3,2.894,1.155,2.757,1.918C115.465,87.362,114.02,87.74,112.359,87.443z
		 M124.871,87.443c-1.655,0.298-3.105-0.081-3.236-0.837c-0.131-0.757,1.103-1.618,2.758-1.918c1.654-0.298,3.105,0.081,3.234,0.839
		C127.764,86.289,126.526,87.145,124.871,87.443z"/>
	<circle fill="#FFFFFF" cx="118.25" cy="69.75" r="3.5"/>
</g>
<g transform="translate(-664.5,-949.25)">
	<path fill="#FFFFFF" d="M686.946,973.072l4.093-2.379c1.42-0.819,1.896-2.626,1.069-4.044l-2.743-4.711
		c-0.825-1.417-2.633-1.896-4.052-1.072l-4.434,2.575l-0.576,1.299l1.909,1.001l4.689-2.74l3.037,5.244l-4.3,2.514
		c0,0-1.096,0.554-1.515,0.951c-0.418,0.398-0.994,1.436-0.994,1.436l-2.596,4.551l-5.25-3.023l0,0l2.913-5.13l-2.091,0.098
		l-0.185-1.44l-2.814,4.905l0,0c-0.82,1.42-0.328,3.223,1.095,4.039l4.733,2.707c1.422,0.816,3.228,0.324,4.044-1.098l2.431-4.236
		c0,0,0.359-0.625,0.627-0.871C686.304,973.394,686.946,973.072,686.946,973.072L686.946,973.072z"/>
	<path fill="#FFFFFF" d="M678.341,961.828l-0.97,0.343l1.37,2.347L678.341,961.828z"/>
	<path fill="#FFFFFF" d="M674.009,962.089l-0.879,1.973l4.359,0.841L674.009,962.089L674.009,962.089z"/>
	<path fill="#FFFFFF" d="M670.869,965.541l0.385,2.426l4.677-1.901L670.869,965.541L670.869,965.541z"/>
</g>
<g>
	<path d="M79.46,53.433c-5.978,0-10.841-4.863-10.841-10.842c0-5.978,4.863-10.841,10.841-10.841s10.842,4.863,10.842,10.841
		C90.302,48.57,85.438,53.433,79.46,53.433z M79.46,33.547c-4.987,0-9.044,4.059-9.044,9.044c0,4.988,4.057,9.044,9.044,9.044
		s9.044-4.057,9.044-9.044S84.447,33.547,79.46,33.547z"/>
	<path d="M110.277,53.433c-5.979,0-10.843-4.863-10.843-10.842c0-5.978,4.864-10.841,10.843-10.841s10.842,4.863,10.842,10.841
		C121.119,48.57,116.256,53.433,110.277,53.433z M110.277,33.547c-4.987,0-9.045,4.059-9.045,9.044c0,4.988,4.058,9.044,9.045,9.044
		s9.045-4.057,9.045-9.044S115.266,33.547,110.277,33.547z"/>
	<path d="M106.084,29.684H88.176c-0.496,0-0.897-0.401-0.897-0.897s0.401-0.898,0.897-0.898h17.908c0.497,0,0.899,0.402,0.899,0.898
		S106.581,29.684,106.084,29.684z"/>
	<path d="M79.459,43.49c-0.163,0-0.329-0.045-0.479-0.141c-0.421-0.264-0.546-0.818-0.279-1.238l8.715-13.808
		c0.264-0.418,0.818-0.545,1.239-0.28c0.419,0.266,0.545,0.819,0.28,1.239L80.22,43.071C80.049,43.342,79.758,43.49,79.459,43.49z"
		/>
	<path d="M95.723,42.052c-0.204,0-0.407-0.068-0.576-0.209c-0.381-0.318-0.432-0.886-0.112-1.266l10.362-12.368
		c0.32-0.382,0.888-0.429,1.266-0.112c0.381,0.319,0.431,0.885,0.112,1.265L96.413,41.731
		C96.233,41.943,95.979,42.052,95.723,42.052z"/>
	<path d="M93.776,41.783c-0.35,0-0.682-0.205-0.826-0.545l-8.085-18.837c-0.197-0.456,0.014-0.983,0.471-1.18
		c0.455-0.199,0.984,0.014,1.18,0.471l8.086,18.839c0.195,0.455-0.016,0.982-0.472,1.179C94.015,41.759,93.895,41.783,93.776,41.783
		z"/>
	<path d="M92.638,43.49H79.46c-0.496,0-0.897-0.402-0.897-0.899c0-0.496,0.401-0.897,0.897-0.897h13.178
		c0.497,0,0.899,0.401,0.899,0.897C93.537,43.088,93.135,43.49,92.638,43.49z"/>
	<path d="M90.752,22.945h-7.607c-0.495,0-0.897-0.401-0.897-0.897s0.402-0.898,0.897-0.898h7.607c0.496,0,0.898,0.402,0.898,0.898
		S91.248,22.945,90.752,22.945z"/>
	<path d="M110.277,43.49c-0.387,0-0.742-0.25-0.859-0.639l-4.193-13.806c-0.024-0.085-0.039-0.173-0.039-0.261v-5.481
		c0-0.496,0.402-0.897,0.898-0.897c0.497,0,0.899,0.401,0.899,0.897v5.347l4.152,13.68c0.146,0.474-0.123,0.976-0.598,1.12
		C110.452,43.479,110.363,43.49,110.277,43.49z"/>
	<path d="M111.535,29.594c-0.496,0-0.898-0.402-0.898-0.898c0-0.495,0.402-0.897,0.898-0.897c0.957,0,1.766-0.823,1.766-1.797
		c0-0.991-0.791-1.797-1.766-1.797h-5.451c-0.496,0-0.898-0.402-0.898-0.899c0-0.496,0.402-0.897,0.898-0.897h5.451
		c1.965,0,3.562,1.612,3.562,3.594C115.098,27.982,113.5,29.594,111.535,29.594z"/>
	<path d="M94.524,45.376c-1.536,0-2.785-1.249-2.785-2.785s1.249-2.786,2.785-2.786c1.51,0,2.784,1.276,2.784,2.786
		C97.31,44.127,96.061,45.376,94.524,45.376z M94.524,41.604c-0.536,0-0.987,0.452-0.987,0.987c0,0.554,0.434,0.988,0.987,0.988
		c0.535,0,0.986-0.452,0.986-0.988C95.512,42.066,95.051,41.604,94.524,41.604z"/>
</g>
<path fill="#FFFFFF" d="M62.412,130.916c0.015,0.58,0.046,1.306,0.119,2.12c-0.457,1.128-0.352,2.99,0.64,3.944
	c0.579,2.321,1.584,4.607,3.334,5.903c1.565,1.16,3.395,2.343,5.09,2.343c1.696,0,3.523-1.183,5.089-2.343
	c1.75-1.294,2.757-3.58,3.333-5.903c0.992-0.957,1.098-2.816,0.642-3.944c0.07-0.814,0.103-1.54,0.117-2.12
	c0.91-0.278,1.577-1.115,1.577-2.117c0-1.228-0.995-2.223-2.222-2.223h-0.196c0-3.683-3.734-8.89-8.34-8.89s-8.342,5.208-8.342,8.89
	h-0.196c-1.227,0-2.222,0.995-2.222,2.223C60.834,129.802,61.501,130.637,62.412,130.916z M76.061,142.043
	c-1.427,1.057-3.075,2.138-4.467,2.138c-1.393,0-3.04-1.081-4.468-2.138c-1.313-0.972-2.159-2.646-2.704-4.457
	c2.555,0.538,5.716-0.878,7.171-0.878s4.615,1.416,7.172,0.877C78.221,139.397,77.376,141.071,76.061,142.043z M64.625,133.831
	c0.718,0,5.164,1.373,5.164,1.373s-0.653,0.713-2.582,1.176C64.488,137.037,63.906,133.831,64.625,133.831z M75.981,136.381
	c-1.93-0.464-2.582-1.176-2.582-1.176s4.442-1.372,5.163-1.372C79.281,133.831,78.699,137.037,75.981,136.381z M79.721,131.022
	c-0.01,0.32-0.024,0.683-0.05,1.077c-0.103-0.009-0.213,0.002-0.325,0.034c-1.83,0.523-7.751,1.961-7.751,1.961
	s-5.923-1.438-7.753-1.961c-0.113-0.032-0.222-0.043-0.324-0.034c-0.024-0.394-0.041-0.756-0.05-1.077H79.721z"/>
</svg>
